<?xml version="1.0"?>
<svg xmlns="http://www.w3.org/2000/svg" xmlns:xlink="http://www.w3.org/1999/xlink" version="1.1" id="Capa_1" x="0px" y="0px" viewBox="0 0 512 512" style="enable-background:new 0 0 512 512;" xml:space="preserve" width="512px" height="512px" class=""><g><g>
	<path style="fill:#A4C2F7" d="M146.097,375.467c-81.129,10.075-137.563,38.102-137.563,64c0,35.346,105.064,64,234.667,64   s234.667-28.654,234.667-64c0-25.898-56.434-53.925-137.563-64" data-original="#A4C2F7"/>
	<path style="fill:#7FACFA" d="M358.4,375.467h-18.096c81.129,10.075,137.563,38.102,137.563,64   c0,34.775-101.723,63.054-228.436,63.956c2.19,0.015,4.366,0.044,6.57,0.044c136.672,0,247.467-28.654,247.467-64   C503.467,413.569,443.954,385.542,358.4,375.467z" data-original="#7FACFA"/>
	<path style="fill:#FFFFFF" d="M153.6,375.467h18.096c-81.129,10.075-137.563,38.102-137.563,64   c0,34.775,101.723,63.054,228.436,63.956c-2.19,0.015-4.366,0.044-6.57,0.044c-136.672,0-247.467-28.654-247.467-64   C8.533,413.569,68.046,385.542,153.6,375.467z" data-original="#FFFFFF"/>
	<path style="fill:#A4C2F7" d="M254.491,452.267l-124.086-179.2c-46.313-61.751-40.173-164.523,14.408-219.103l0,0   c60.573-60.573,158.781-60.573,219.354,0l0,0c54.581,54.581,60.722,157.352,14.409,219.103L254.491,452.267z" data-original="#A4C2F7"/>
	<path style="fill:#E3E7F2" d="M252.982,452.267l-116.809-179.2C89.86,211.315,96.001,108.544,150.582,53.963l0,0   c60.573-60.573,124.395-60.573,184.969,0l0,0c54.581,54.581,60.722,157.352,14.409,219.103L252.982,452.267z" data-original="#E3E7F2" class="" data-old_color="#343536"/>
	<circle style="fill:#7FACFA" cx="256" cy="162.133" r="51.2" data-original="#7FACFA"/>
	<ellipse style="fill:#A4C2F7" cx="240.213" cy="162.133" rx="38.4" ry="51.2" data-original="#A4C2F7"/>
	<path style="fill:#FFFFFF" d="M144.814,53.963L144.814,53.963c30.65-30.659,72.77-47.032,116.08-45.123   c-29.422,1.542-58.806,16.467-87.462,45.123h0c-54.581,54.582-60.722,157.352-14.408,219.104l96.315,177.977l-0.847,1.223   l-124.086-179.2C84.092,211.315,90.233,108.544,144.814,53.963z" data-original="#FFFFFF"/>
	<g>
		<path style="fill:#428DFF" d="M256,221.867c-32.99,0-59.733-26.744-59.733-59.733S223.01,102.4,256,102.4    s59.733,26.744,59.733,59.733C315.695,195.107,288.974,221.828,256,221.867L256,221.867z M256,119.467    c-23.564,0-42.667,19.103-42.667,42.667S232.436,204.8,256,204.8s42.667-19.103,42.667-42.667    C298.639,138.581,279.553,119.494,256,119.467L256,119.467z" data-original="#428DFF" class="active-path"/>
		<path style="fill:#428DFF" d="M254.492,460.8c-2.8-0.001-5.421-1.374-7.017-3.675l-124.088-179.2    c-48.908-65.208-41.804-172.8,15.392-229.992C169.466,17.242,211.089,0,254.49,0s85.024,17.242,115.71,47.933    c57.2,57.192,64.304,164.792,15.2,230.25L261.508,457.125C259.913,459.426,257.292,460.799,254.492,460.8z M254.492,17.067    C215.596,16.963,178.275,32.422,150.846,60c-51.621,51.617-57.983,148.792-13.617,207.95l117.263,169.325l117.067-169.067    c44.563-59.417,38.2-156.592-13.425-208.208C330.706,32.422,293.386,16.962,254.492,17.067z" data-original="#428DFF" class="active-path"/>
		<path style="fill:#428DFF" d="M256,512C87.933,512,0,475.508,0,439.467c0-32.092,62.754-61.892,152.6-72.475    c4.681-0.552,8.923,2.794,9.475,7.475s-2.794,8.923-7.475,9.475c-89.738,10.567-137.533,39.033-137.533,55.525    c0,23.158,90.9,55.467,238.933,55.467s238.933-32.308,238.933-55.467c0-16.492-47.796-44.958-137.533-55.525    c-4.681-0.552-8.027-4.794-7.475-9.475c0.552-4.681,4.794-8.027,9.475-7.475c89.846,10.583,152.6,40.383,152.6,72.475    C512,475.508,424.067,512,256,512z" data-original="#428DFF" class="active-path"/>
	</g>
</g></g> </svg>
